<svg width="16" height="16" viewBox="0 0 16 16" fill="none" xmlns="http://www.w3.org/2000/svg">
<g clip-path="url(#clip0_1_405)">
<path d="M14.9734 8.39673C14.9734 7.53756 14.8205 6.71381 14.54 5.95173C14.3484 8.19714 13.1513 9.35048 11.9005 8.81339C10.7288 8.31006 11.5184 6.34798 11.5767 5.41173C11.675 3.82464 11.5717 2.00798 8.68879 0.497559C9.8867 2.78923 8.82754 4.21298 7.7167 4.29964C6.4842 4.39589 5.35545 3.24048 5.77212 1.36548C4.42295 2.35964 4.38379 4.03298 4.80003 5.11548C5.2342 6.24381 4.78254 7.18131 3.72379 7.28548C2.54045 7.40214 1.88295 6.01839 2.4892 3.81339C1.44004 5.04881 0.806702 6.64881 0.806702 8.39673C0.806702 12.3088 3.97795 15.4801 7.89004 15.4801C11.8021 15.4801 14.9734 12.3088 14.9734 8.39673Z" fill="#F4900C"/>
<path d="M12.2208 10.4795C12.2825 11.7645 11.1538 12.2682 10.5463 12.0249C9.66876 11.6736 9.90418 11.0703 9.67835 9.82031C9.45251 8.57031 8.5846 7.7024 7.30001 7.32031C8.23751 9.95906 6.78043 10.9316 6.01668 11.1053C5.23668 11.2828 4.45293 11.1049 4.36335 9.43573C3.45335 10.3416 2.89001 11.5949 2.89001 12.9799C2.89001 13.1332 2.8996 13.2841 2.91293 13.4341C4.1921 14.6982 5.94918 15.4799 7.89001 15.4799C9.83085 15.4799 11.5879 14.6982 12.8671 13.4341C12.8804 13.2841 12.89 13.1332 12.89 12.9799C12.89 12.0686 12.6467 11.2149 12.2208 10.4795Z" fill="#FFCC4D"/>
</g>
<defs>
<clipPath id="clip0_1_405">
<rect width="15" height="15" fill="white" transform="translate(0.390015 0.47998)"/>
</clipPath>
</defs>
</svg>
