<svg width="83" height="13" viewBox="0 0 83 13" fill="none" xmlns="http://www.w3.org/2000/svg">
<path d="M0.245 11.8899V0.714892H7.325V2.06489H1.715V5.67989H6.8V7.02989H1.715V11.8899H0.245ZM8.82512 11.8899V3.80489H10.2201V11.8899H8.82512ZM8.82512 2.51489V0.714892H10.2201V2.51489H8.82512ZM12.3847 11.8899V3.80489H13.7497V5.37989L13.5247 5.24489C13.7247 4.73489 14.0447 4.33989 14.4847 4.05989C14.9347 3.76989 15.4597 3.62489 16.0597 3.62489C16.6397 3.62489 17.1547 3.75489 17.6047 4.01489C18.0647 4.27489 18.4247 4.63489 18.6847 5.09489C18.9547 5.55489 19.0897 6.07489 19.0897 6.65489V11.8899H17.6797V7.10489C17.6797 6.65489 17.5997 6.27489 17.4397 5.96489C17.2797 5.65489 17.0497 5.41489 16.7497 5.24489C16.4597 5.06489 16.1247 4.97489 15.7447 4.97489C15.3647 4.97489 15.0247 5.06489 14.7247 5.24489C14.4347 5.41489 14.2047 5.65989 14.0347 5.97989C13.8647 6.28989 13.7797 6.66489 13.7797 7.10489V11.8899H12.3847ZM24.7609 12.0699C24.0009 12.0699 23.3159 11.8849 22.7059 11.5149C22.1059 11.1449 21.6309 10.6399 21.2809 9.99989C20.9309 9.35989 20.7559 8.64489 20.7559 7.85489C20.7559 7.04489 20.9309 6.32489 21.2809 5.69489C21.6309 5.05489 22.1059 4.54989 22.7059 4.17989C23.3159 3.80989 24.0009 3.62489 24.7609 3.62489C25.4309 3.62489 26.0259 3.76989 26.5459 4.05989C27.0659 4.33989 27.4759 4.71989 27.7759 5.19989L27.5509 5.54489V0.534892H28.9609V11.8899H27.5959V10.1649L27.7759 10.4049C27.4959 10.9349 27.0859 11.3449 26.5459 11.6349C26.0159 11.9249 25.4209 12.0699 24.7609 12.0699ZM24.8809 10.7199C25.3909 10.7199 25.8459 10.5949 26.2459 10.3449C26.6459 10.0949 26.9609 9.75489 27.1909 9.32489C27.4309 8.88489 27.5509 8.39489 27.5509 7.85489C27.5509 7.30489 27.4309 6.81489 27.1909 6.38489C26.9609 5.94489 26.6459 5.59989 26.2459 5.34989C25.8459 5.09989 25.3909 4.97489 24.8809 4.97489C24.3809 4.97489 23.9259 5.10489 23.5159 5.36489C23.1159 5.61489 22.8009 5.95489 22.5709 6.38489C22.3409 6.80489 22.2259 7.29489 22.2259 7.85489C22.2259 8.39489 22.3409 8.88489 22.5709 9.32489C22.8009 9.75489 23.1159 10.0949 23.5159 10.3449C23.9159 10.5949 24.3709 10.7199 24.8809 10.7199ZM36.0828 12.0699C35.5528 12.0699 35.0828 11.9749 34.6728 11.7849C34.2728 11.5849 33.9578 11.3149 33.7278 10.9749C33.4978 10.6249 33.3828 10.2249 33.3828 9.77489C33.3828 9.34489 33.4728 8.95989 33.6528 8.61989C33.8428 8.26989 34.1328 7.97489 34.5228 7.73489C34.9228 7.49489 35.4228 7.32489 36.0228 7.22489L39.0228 6.72989V7.89989L36.3378 8.34989C35.8178 8.43989 35.4378 8.60489 35.1978 8.84489C34.9678 9.08489 34.8528 9.37989 34.8528 9.72989C34.8528 10.0599 34.9828 10.3349 35.2428 10.5549C35.5128 10.7749 35.8478 10.8849 36.2478 10.8849C36.7578 10.8849 37.1978 10.7799 37.5678 10.5699C37.9478 10.3499 38.2428 10.0549 38.4528 9.68489C38.6728 9.31489 38.7828 8.90489 38.7828 8.45489V6.39989C38.7828 5.95989 38.6178 5.60489 38.2878 5.33489C37.9678 5.05489 37.5428 4.91489 37.0128 4.91489C36.5528 4.91489 36.1428 5.03489 35.7828 5.27489C35.4328 5.50489 35.1728 5.81489 35.0028 6.20489L33.7878 5.57489C33.9378 5.20489 34.1778 4.87489 34.5078 4.58489C34.8378 4.28489 35.2228 4.04989 35.6628 3.87989C36.1028 3.70989 36.5628 3.62489 37.0428 3.62489C37.6628 3.62489 38.2078 3.74489 38.6778 3.98489C39.1478 4.21489 39.5128 4.53989 39.7728 4.95989C40.0428 5.36989 40.1778 5.84989 40.1778 6.39989V11.8899H38.8128V10.3599L39.0678 10.4499C38.8978 10.7699 38.6678 11.0499 38.3778 11.2899C38.0878 11.5299 37.7478 11.7199 37.3578 11.8599C36.9678 11.9999 36.5428 12.0699 36.0828 12.0699ZM48.9385 12.0699C48.2285 12.0699 47.5785 11.9399 46.9885 11.6799C46.3985 11.4099 45.8985 11.0449 45.4885 10.5849C45.0785 10.1249 44.7835 9.60989 44.6035 9.03989L45.8785 8.51489C46.1485 9.23489 46.5485 9.78989 47.0785 10.1799C47.6185 10.5599 48.2485 10.7499 48.9685 10.7499C49.4085 10.7499 49.7935 10.6799 50.1235 10.5399C50.4535 10.3999 50.7085 10.2049 50.8885 9.95489C51.0785 9.69489 51.1735 9.39489 51.1735 9.05489C51.1735 8.58489 51.0385 8.21489 50.7685 7.94489C50.5085 7.66489 50.1235 7.45489 49.6135 7.31489L47.5585 6.68489C46.7485 6.43489 46.1285 6.03989 45.6985 5.49989C45.2685 4.95989 45.0535 4.33989 45.0535 3.63989C45.0535 3.02989 45.1985 2.49489 45.4885 2.03489C45.7885 1.56489 46.1985 1.19989 46.7185 0.939892C47.2485 0.669892 47.8485 0.534892 48.5185 0.534892C49.1885 0.534892 49.7935 0.654892 50.3335 0.894892C50.8835 1.13489 51.3485 1.45989 51.7285 1.86989C52.1085 2.26989 52.3885 2.72989 52.5685 3.24989L51.3085 3.77489C51.0685 3.14489 50.7085 2.66989 50.2285 2.34989C49.7485 2.01989 49.1835 1.85489 48.5335 1.85489C48.1335 1.85489 47.7785 1.92489 47.4685 2.06489C47.1685 2.19489 46.9335 2.38989 46.7635 2.64989C46.6035 2.89989 46.5235 3.19989 46.5235 3.54989C46.5235 3.95989 46.6535 4.32489 46.9135 4.64489C47.1735 4.96489 47.5685 5.20989 48.0985 5.37989L49.9735 5.93489C50.8535 6.20489 51.5185 6.58989 51.9685 7.08989C52.4185 7.58989 52.6435 8.20989 52.6435 8.94989C52.6435 9.55989 52.4835 10.0999 52.1635 10.5699C51.8535 11.0399 51.4185 11.4099 50.8585 11.6799C50.3085 11.9399 49.6685 12.0699 48.9385 12.0699ZM57.9158 11.9799C57.1258 11.9799 56.5158 11.7549 56.0858 11.3049C55.6658 10.8549 55.4558 10.2199 55.4558 9.39989V5.13989H53.9858V3.80489H54.2858C54.6458 3.80489 54.9308 3.69489 55.1408 3.47489C55.3508 3.25489 55.4558 2.96489 55.4558 2.60489V1.94489H56.8508V3.80489H58.6658V5.13989H56.8508V9.35489C56.8508 9.62489 56.8908 9.85989 56.9708 10.0599C57.0608 10.2599 57.2058 10.4199 57.4058 10.5399C57.6058 10.6499 57.8708 10.7049 58.2008 10.7049C58.2708 10.7049 58.3558 10.6999 58.4558 10.6899C58.5658 10.6799 58.6658 10.6699 58.7558 10.6599V11.8899C58.6258 11.9199 58.4808 11.9399 58.3208 11.9499C58.1608 11.9699 58.0258 11.9799 57.9158 11.9799ZM64.1983 12.0699C63.4183 12.0699 62.7133 11.8899 62.0833 11.5299C61.4533 11.1599 60.9533 10.6549 60.5833 10.0149C60.2133 9.37489 60.0283 8.64989 60.0283 7.83989C60.0283 7.02989 60.2083 6.30989 60.5683 5.67989C60.9383 5.04989 61.4383 4.54989 62.0683 4.17989C62.6983 3.80989 63.4083 3.62489 64.1983 3.62489C64.9783 3.62489 65.6833 3.80989 66.3133 4.17989C66.9433 4.53989 67.4383 5.03489 67.7983 5.66489C68.1683 6.29489 68.3533 7.01989 68.3533 7.83989C68.3533 8.65989 68.1633 9.38989 67.7833 10.0299C67.4033 10.6599 66.8983 11.1599 66.2683 11.5299C65.6483 11.8899 64.9583 12.0699 64.1983 12.0699ZM64.1983 10.7199C64.6983 10.7199 65.1483 10.5949 65.5483 10.3449C65.9583 10.0949 66.2783 9.74989 66.5083 9.30989C66.7483 8.86989 66.8683 8.37989 66.8683 7.83989C66.8683 7.28989 66.7483 6.80489 66.5083 6.38489C66.2783 5.95489 65.9583 5.61489 65.5483 5.36489C65.1483 5.10489 64.6983 4.97489 64.1983 4.97489C63.6883 4.97489 63.2283 5.10489 62.8183 5.36489C62.4183 5.61489 62.0983 5.95489 61.8583 6.38489C61.6183 6.80489 61.4983 7.28989 61.4983 7.83989C61.4983 8.37989 61.6183 8.86989 61.8583 9.30989C62.0983 9.74989 62.4183 10.0949 62.8183 10.3449C63.2283 10.5949 63.6883 10.7199 64.1983 10.7199ZM70.1728 11.8899V3.80489H71.5378V5.28989L71.3878 5.07989C71.5778 4.61989 71.8678 4.27989 72.2578 4.05989C72.6478 3.82989 73.1228 3.71489 73.6828 3.71489H74.1778V5.03489H73.4728C72.9028 5.03489 72.4428 5.21489 72.0928 5.57489C71.7428 5.92489 71.5678 6.42489 71.5678 7.07489V11.8899H70.1728ZM79.1369 12.0699C78.3569 12.0699 77.6619 11.8849 77.0519 11.5149C76.4419 11.1449 75.9619 10.6399 75.6119 9.99989C75.2619 9.34989 75.0869 8.62489 75.0869 7.82489C75.0869 7.01489 75.2569 6.29489 75.5969 5.66489C75.9469 5.03489 76.4169 4.53989 77.0069 4.17989C77.6069 3.80989 78.2769 3.62489 79.0169 3.62489C79.6169 3.62489 80.1469 3.73489 80.6069 3.95489C81.0769 4.16489 81.4719 4.45489 81.7919 4.82489C82.1219 5.18489 82.3719 5.59989 82.5419 6.06989C82.7219 6.52989 82.8119 7.00989 82.8119 7.50989C82.8119 7.61989 82.8019 7.74489 82.7819 7.88489C82.7719 8.01489 82.7569 8.13989 82.7369 8.25989H76.1069V7.05989H81.9269L81.2669 7.59989C81.3569 7.07989 81.3069 6.61489 81.1169 6.20489C80.9269 5.79489 80.6469 5.46989 80.2769 5.22989C79.9069 4.98989 79.4869 4.86989 79.0169 4.86989C78.5469 4.86989 78.1169 4.98989 77.7269 5.22989C77.3369 5.46989 77.0319 5.81489 76.8119 6.26489C76.6019 6.70489 76.5169 7.22989 76.5569 7.83989C76.5169 8.42989 76.6069 8.94989 76.8269 9.39989C77.0569 9.83989 77.3769 10.1849 77.7869 10.4349C78.2069 10.6749 78.6619 10.7949 79.1519 10.7949C79.6919 10.7949 80.1469 10.6699 80.5169 10.4199C80.8869 10.1699 81.1869 9.84989 81.4169 9.45989L82.5869 10.0599C82.4269 10.4299 82.1769 10.7699 81.8369 11.0799C81.5069 11.3799 81.1119 11.6199 80.6519 11.7999C80.2019 11.9799 79.6969 12.0699 79.1369 12.0699Z" fill="#7E7E7E"/>
</svg>
