<svg width="14" height="18" viewBox="0 0 14 18" fill="none" xmlns="http://www.w3.org/2000/svg">
<path d="M6.875 5.13989C6.35417 5.13989 5.91146 5.32218 5.54688 5.68677C5.18229 6.05135 5 6.49406 5 7.01489C5 7.53573 5.18229 7.97843 5.54688 8.34302C5.91146 8.7076 6.35417 8.88989 6.875 8.88989C7.39583 8.88989 7.83854 8.7076 8.20312 8.34302C8.56771 7.97843 8.75 7.53573 8.75 7.01489C8.75 6.49406 8.56771 6.05135 8.20312 5.68677C7.83854 5.32218 7.39583 5.13989 6.875 5.13989ZM3.75 7.01489C3.75 6.15552 4.05599 5.41984 4.66797 4.80786C5.27995 4.19588 6.01562 3.88989 6.875 3.88989C7.73438 3.88989 8.47005 4.19588 9.08203 4.80786C9.69401 5.41984 10 6.15552 10 7.01489C10 7.87427 9.69401 8.60994 9.08203 9.22192C8.47005 9.8339 7.73438 10.1399 6.875 10.1399C6.01562 10.1399 5.27995 9.8339 4.66797 9.22192C4.05599 8.60994 3.75 7.87427 3.75 7.01489ZM6.875 1.38989C6.13281 1.38989 5.41667 1.53312 4.72656 1.81958C4.03646 2.10604 3.42448 2.50968 2.89062 3.03052C2.36979 3.56437 1.96615 4.17635 1.67969 4.86646C1.39323 5.55656 1.25 6.27271 1.25 7.01489C1.25 7.66593 1.33464 8.29744 1.50391 8.90942C1.67318 9.5214 1.89453 10.1106 2.16797 10.677C2.44141 11.2434 2.75391 11.7805 3.10547 12.2883C3.47005 12.7961 3.84115 13.2714 4.21875 13.7141C4.59635 14.1438 4.96745 14.5344 5.33203 14.886C5.69661 15.2375 6.02214 15.5305 6.30859 15.7649C6.41276 15.856 6.51367 15.9407 6.61133 16.0188C6.70898 16.0969 6.79688 16.1685 6.875 16.2336C6.95312 16.1685 7.04102 16.0969 7.13867 16.0188C7.23633 15.9407 7.33724 15.856 7.44141 15.7649C7.72786 15.5305 8.05339 15.2375 8.41797 14.886C8.78255 14.5344 9.15365 14.1438 9.53125 13.7141C9.90885 13.2714 10.2799 12.7961 10.6445 12.2883C10.9961 11.7805 11.3086 11.2434 11.582 10.677C11.8555 10.1106 12.0768 9.5214 12.2461 8.90942C12.4154 8.29744 12.5 7.66593 12.5 7.01489C12.5 6.27271 12.3568 5.55656 12.0703 4.86646C11.7839 4.17635 11.3802 3.56437 10.8594 3.03052C10.3255 2.50968 9.71354 2.10604 9.02344 1.81958C8.33333 1.53312 7.61719 1.38989 6.875 1.38989ZM6.875 17.0149C6.69271 17.2753 6.58854 17.425 6.5625 17.4641C6.53646 17.5032 6.52344 17.5227 6.52344 17.5227H6.50391C6.50391 17.5227 6.50391 17.5194 6.50391 17.5129C6.50391 17.5064 6.4974 17.5032 6.48438 17.5032C6.48438 17.5032 6.47786 17.4999 6.46484 17.4934C6.45182 17.4869 6.44531 17.4771 6.44531 17.4641C6.41927 17.4511 6.38672 17.4316 6.34766 17.4055C6.30859 17.3795 6.26953 17.3469 6.23047 17.3079C6.13932 17.2428 6.0319 17.1614 5.9082 17.0637C5.78451 16.9661 5.64453 16.8521 5.48828 16.7219C5.1888 16.4615 4.84701 16.149 4.46289 15.7844C4.07878 15.4198 3.6849 15.0032 3.28125 14.5344C2.8776 14.0787 2.48047 13.5709 2.08984 13.011C1.69922 12.4511 1.34766 11.8554 1.03516 11.2239C0.722656 10.5924 0.47526 9.92505 0.292969 9.22192C0.0976562 8.50578 0 7.7701 0 7.01489C0 6.10343 0.175781 5.22778 0.527344 4.38794C0.878906 3.5481 1.3737 2.80265 2.01172 2.15161C2.66276 1.51359 3.4082 1.0188 4.24805 0.667236C5.08789 0.315674 5.96354 0.139893 6.875 0.139893C7.78646 0.139893 8.66211 0.315674 9.50195 0.667236C10.3418 1.0188 11.0872 1.51359 11.7383 2.15161C12.3763 2.80265 12.8711 3.5481 13.2227 4.38794C13.5742 5.22778 13.75 6.10343 13.75 7.01489C13.75 7.7701 13.6523 8.50578 13.457 9.22192C13.2747 9.92505 13.0273 10.5924 12.7148 11.2239C12.4023 11.8554 12.0508 12.4511 11.6602 13.011C11.2695 13.5709 10.8724 14.0787 10.4688 14.5344C10.0651 15.0032 9.67122 15.4198 9.28711 15.7844C8.90299 16.149 8.5612 16.4615 8.26172 16.7219C8.10547 16.8521 7.96549 16.9661 7.8418 17.0637C7.7181 17.1614 7.61068 17.2428 7.51953 17.3079C7.48047 17.3469 7.44141 17.3795 7.40234 17.4055C7.36328 17.4316 7.33073 17.4511 7.30469 17.4641C7.30469 17.4771 7.29818 17.4869 7.28516 17.4934C7.27214 17.4999 7.26562 17.5032 7.26562 17.5032C7.2526 17.5162 7.24609 17.5227 7.24609 17.5227H7.22656C7.22656 17.5227 7.21354 17.5032 7.1875 17.4641C7.16146 17.425 7.05729 17.2753 6.875 17.0149ZM6.875 17.0149L7.22656 17.5227C7.1224 17.6008 7.00521 17.6399 6.875 17.6399C6.74479 17.6399 6.6276 17.6008 6.52344 17.5227L6.875 17.0149Z" fill="#7E7E7E"/>
</svg>
