<svg width="49" height="49" viewBox="0 0 49 49" fill="none" xmlns="http://www.w3.org/2000/svg">
<rect x="0.630005" y="0.390137" width="48" height="48" rx="24" fill="#F5F5F5"/>
<g clip-path="url(#clip0_1_426)">
<path d="M23.8566 15.4526C23.9034 15.2495 24.0167 15.0972 24.1964 14.9956C24.3761 14.894 24.5675 14.8667 24.7706 14.9136C25.4738 15.1011 26.1378 15.3745 26.7628 15.7339C27.3878 16.0933 27.9581 16.5308 28.4738 17.0464C28.9894 17.562 29.4269 18.1323 29.7863 18.7573C30.1456 19.3823 30.4191 20.0464 30.6066 20.7495C30.6534 20.9526 30.6261 21.144 30.5245 21.3237C30.423 21.5034 30.2706 21.6167 30.0675 21.6636C29.8644 21.7261 29.6769 21.7026 29.505 21.5933C29.3331 21.4839 29.2159 21.3354 29.1534 21.1479C28.9972 20.5698 28.7706 20.0229 28.4738 19.5073C28.1769 18.9917 27.8175 18.5308 27.3956 18.1245C26.9894 17.7026 26.5284 17.3433 26.0128 17.0464C25.4972 16.7495 24.9503 16.5229 24.3722 16.3667C24.1847 16.3042 24.0363 16.187 23.9269 16.0151C23.8175 15.8433 23.7941 15.6558 23.8566 15.4526ZM23.0597 18.3354C23.1222 18.1479 23.2433 17.9995 23.423 17.8901C23.6027 17.7808 23.7941 17.7573 23.9972 17.8198C24.4347 17.9292 24.8527 18.1011 25.2511 18.3354C25.6495 18.5698 26.0128 18.8511 26.3409 19.1792C26.6691 19.5073 26.9503 19.8706 27.1847 20.269C27.4191 20.6675 27.5909 21.0854 27.7003 21.5229C27.7628 21.7261 27.7394 21.9175 27.63 22.0972C27.5206 22.2769 27.3722 22.3979 27.1847 22.4604C26.9816 22.5073 26.7902 22.48 26.6105 22.3784C26.4308 22.2769 26.3097 22.1245 26.2472 21.9214C26.1691 21.5933 26.048 21.2886 25.8839 21.0073C25.7198 20.7261 25.5206 20.4683 25.2863 20.2339C25.0519 19.9995 24.7941 19.8003 24.5128 19.6362C24.2316 19.4722 23.9269 19.3511 23.5988 19.2729C23.3956 19.2104 23.2433 19.0894 23.1417 18.9097C23.0402 18.73 23.0128 18.5386 23.0597 18.3354ZM17.2238 14.187C17.38 14.1714 17.5363 14.1792 17.6925 14.2104C17.8488 14.2417 17.9972 14.2964 18.1378 14.3745C18.2784 14.4526 18.4034 14.5542 18.5128 14.6792C18.6222 14.8042 18.7081 14.937 18.7706 15.0776L20.6691 19.4839C20.7159 19.5933 20.7472 19.7065 20.7628 19.8237C20.7784 19.9409 20.7863 20.062 20.7863 20.187C20.7706 20.312 20.7433 20.4331 20.7042 20.5503C20.6652 20.6675 20.6144 20.7808 20.5519 20.8901L18.9816 23.2573C19.3253 23.9761 19.7823 24.6206 20.3527 25.1909C20.923 25.7612 21.5675 26.2183 22.2863 26.562L24.63 24.9917C24.7238 24.9292 24.8331 24.8745 24.9581 24.8276C25.0831 24.7808 25.2081 24.7495 25.3331 24.7339C25.4425 24.7339 25.5597 24.7417 25.6847 24.7573C25.8097 24.7729 25.9347 24.8042 26.0597 24.8511L30.4425 26.7495C30.5831 26.812 30.7159 26.8979 30.8409 27.0073C30.9659 27.1167 31.0675 27.2417 31.1456 27.3823C31.2238 27.5229 31.2784 27.6714 31.3097 27.8276C31.3409 27.9839 31.3488 28.1401 31.3331 28.2964C31.255 28.937 31.0675 29.5386 30.7706 30.1011C30.4738 30.6636 30.0831 31.1558 29.5988 31.5776C29.1144 31.9995 28.5753 32.3237 27.9816 32.5503C27.3878 32.7769 26.7706 32.8901 26.13 32.8901C25.2394 32.8901 24.3566 32.8042 23.4816 32.6323C22.6066 32.4604 21.7667 32.2065 20.962 31.8706C20.1573 31.5347 19.38 31.1167 18.63 30.6167C17.8956 30.1323 17.2159 29.5698 16.5909 28.9292C15.9503 28.3042 15.3878 27.6245 14.9034 26.8901C14.4034 26.1401 13.9855 25.3628 13.6495 24.5581C13.3136 23.7534 13.0597 22.9136 12.8878 22.0386C12.7159 21.1636 12.63 20.2808 12.63 19.3901C12.63 18.7495 12.7433 18.1323 12.9698 17.5386C13.1964 16.9448 13.5206 16.4058 13.9425 15.9214C14.3644 15.437 14.8566 15.0464 15.4191 14.7495C15.9816 14.4526 16.5831 14.2651 17.2238 14.187ZM18.3019 23.5854L17.6222 23.9136C17.5753 23.8042 17.5363 23.6831 17.505 23.5503C17.4738 23.4175 17.4659 23.2886 17.4816 23.1636C17.4972 23.0386 17.5245 22.9175 17.5636 22.8003C17.6027 22.6831 17.6534 22.5698 17.7159 22.4604V22.437L19.2863 20.0698L17.3878 15.6636C16.9503 15.7261 16.5284 15.8628 16.1222 16.0737C15.7159 16.2847 15.3644 16.562 15.0675 16.9058C14.7706 17.2495 14.5402 17.6362 14.3761 18.0659C14.212 18.4956 14.13 18.937 14.13 19.3901L18.3019 23.5854ZM26.13 31.3901C26.5831 31.3901 27.0245 31.3081 27.4542 31.144C27.8839 30.98 28.2706 30.7495 28.6144 30.4526C28.9581 30.1558 29.2355 29.8042 29.4464 29.3979C29.6573 28.9917 29.7941 28.5698 29.8566 28.1323L25.4503 26.2339L23.13 27.8042C23.1144 27.8042 23.1066 27.8042 23.1066 27.8042C23.0128 27.8823 22.9034 27.9409 22.7784 27.98C22.6534 28.019 22.5284 28.0464 22.4034 28.062C22.2628 28.062 22.13 28.0503 22.005 28.0269C21.88 28.0034 21.755 27.9683 21.63 27.9214C20.755 27.4995 19.9738 26.9448 19.2863 26.2573C18.5988 25.5698 18.0441 24.7886 17.6222 23.9136L18.3019 23.5854L26.13 31.3901ZM14.13 19.3901C14.13 20.187 14.2081 20.9683 14.3644 21.7339C14.5206 22.5151 14.7472 23.2651 15.0441 23.9839C15.3409 24.7026 15.7081 25.3901 16.1456 26.0464C16.5831 26.7026 17.0831 27.312 17.6456 27.8745C18.2081 28.437 18.8175 28.937 19.4738 29.3745C20.13 29.812 20.8175 30.1792 21.5363 30.4761C22.255 30.7729 23.005 30.9995 23.7863 31.1558C24.5519 31.312 25.3331 31.3901 26.13 31.3901L14.13 19.3901Z" fill="black"/>
</g>
<defs>
<clipPath id="clip0_1_426">
<rect width="24" height="25" fill="white" transform="matrix(1 0 0 -1 12.63 36.3901)"/>
</clipPath>
</defs>
</svg>
