<svg width="18" height="18" viewBox="0 0 18 18" fill="none" xmlns="http://www.w3.org/2000/svg">
<path d="M8.03782 0.874414C8.14199 0.796289 8.25592 0.737696 8.37962 0.698633C8.50331 0.659571 8.63027 0.640039 8.76048 0.640039C8.89068 0.640039 9.01764 0.659571 9.14134 0.698633C9.26503 0.737696 9.37897 0.796289 9.48313 0.874414C9.60032 0.939519 9.69798 1.02415 9.7761 1.12832C9.85423 1.23249 9.91282 1.34316 9.95188 1.46035L11.6706 5.77676C11.6706 5.78978 11.6706 5.79629 11.6706 5.79629C11.6706 5.79629 11.6706 5.79954 11.6706 5.80606C11.6706 5.81257 11.6771 5.81582 11.6902 5.81582L16.2995 6.10879C16.8985 6.14785 17.2826 6.45059 17.4519 7.01699C17.6212 7.5834 17.4844 8.04889 17.0417 8.41348L13.5066 11.3627C13.5066 11.3627 13.5033 11.366 13.4968 11.3725C13.4903 11.379 13.487 11.3822 13.487 11.3822C13.487 11.3822 13.487 11.3855 13.487 11.392C13.487 11.3985 13.487 11.4018 13.487 11.4018L14.6394 15.8939C14.7696 16.4408 14.6068 16.8966 14.1511 17.2611C13.6954 17.6257 13.2136 17.6452 12.7058 17.3197L8.76048 14.8197L5.0886 17.1439C4.5287 17.4955 3.99811 17.4695 3.4968 17.0658C2.9955 16.6622 2.82298 16.1609 2.97923 15.5619L4.03391 11.4018C4.03391 11.4018 4.03391 11.3985 4.03391 11.392C4.03391 11.3855 4.03391 11.3822 4.03391 11.3822C4.03391 11.3822 4.03066 11.379 4.02415 11.3725C4.01764 11.366 4.01438 11.3627 4.01438 11.3627L0.479226 8.41348C0.0365177 8.04889 -0.100201 7.5834 0.0690697 7.01699C0.238341 6.45059 0.622455 6.14785 1.22141 6.10879L5.83079 5.81582C5.84381 5.81582 5.85032 5.81257 5.85032 5.80606C5.85032 5.79954 5.85032 5.79629 5.85032 5.79629C5.85032 5.79629 5.85032 5.78978 5.85032 5.77676L7.56907 1.46035C7.60813 1.34316 7.66673 1.23249 7.74485 1.12832C7.82298 1.02415 7.92063 0.939519 8.03782 0.874414ZM9.44407 13.765L13.3699 16.265C13.3829 16.265 13.3894 16.265 13.3894 16.265C13.3894 16.265 13.3959 16.265 13.4089 16.265C13.4089 16.252 13.4122 16.2455 13.4187 16.2455C13.4252 16.2455 13.4284 16.239 13.4284 16.226C13.4284 16.226 13.4284 16.2227 13.4284 16.2162C13.4284 16.2097 13.4284 16.2064 13.4284 16.2064L12.2761 11.7143C12.2501 11.5971 12.2403 11.4766 12.2468 11.3529C12.2533 11.2292 12.2761 11.1088 12.3152 10.9916C12.3412 10.8744 12.39 10.7637 12.4616 10.6596C12.5333 10.5554 12.6146 10.4643 12.7058 10.3861L16.2409 7.45645C16.2409 7.44342 16.2442 7.43691 16.2507 7.43691C16.2572 7.43691 16.2605 7.43691 16.2605 7.43691C16.2605 7.43691 16.2605 7.4304 16.2605 7.41738C16.2605 7.41738 16.2605 7.41413 16.2605 7.40762C16.2605 7.40111 16.2605 7.39134 16.2605 7.37832C16.2605 7.37832 16.2572 7.37507 16.2507 7.36856C16.2442 7.36204 16.2409 7.35879 16.2409 7.35879C16.2409 7.35879 16.2344 7.35879 16.2214 7.35879L11.6316 7.06582C11.6316 7.06582 11.6283 7.06582 11.6218 7.06582C11.6153 7.06582 11.612 7.06582 11.612 7.06582C11.4949 7.0528 11.3777 7.02676 11.2605 6.9877C11.1433 6.94863 11.0391 6.89004 10.948 6.81191C10.8438 6.73379 10.7559 6.64915 10.6843 6.55801C10.6127 6.46686 10.5508 6.3627 10.4988 6.24551L8.78001 1.90957C8.78001 1.89655 8.78001 1.89004 8.78001 1.89004C8.78001 1.89004 8.77675 1.89004 8.77024 1.89004C8.76373 1.89004 8.76048 1.89004 8.76048 1.89004C8.76048 1.89004 8.75722 1.89004 8.75071 1.89004C8.7442 1.89004 8.74094 1.89004 8.74094 1.89004C8.74094 1.89004 8.74094 1.89655 8.74094 1.90957L7.02219 6.24551C6.97011 6.3627 6.90826 6.46686 6.83665 6.55801C6.76503 6.64915 6.67714 6.73379 6.57298 6.81191C6.48183 6.89004 6.37766 6.94863 6.26048 6.9877C6.14329 7.02676 6.0261 7.0528 5.90891 7.06582L1.29954 7.35879C1.28652 7.35879 1.28001 7.35879 1.28001 7.35879C1.28001 7.35879 1.27675 7.36204 1.27024 7.36856C1.26373 7.37507 1.26048 7.37832 1.26048 7.37832C1.26048 7.39134 1.26048 7.40111 1.26048 7.40762C1.26048 7.41413 1.26048 7.41738 1.26048 7.41738C1.26048 7.4304 1.26048 7.43691 1.26048 7.43691C1.26048 7.43691 1.26373 7.43691 1.27024 7.43691C1.27675 7.43691 1.28001 7.44342 1.28001 7.45645L4.81516 10.3861C4.90631 10.4643 4.98769 10.5554 5.0593 10.6596C5.13092 10.7637 5.17975 10.8744 5.20579 10.9916C5.24485 11.1088 5.26764 11.2292 5.27415 11.3529C5.28066 11.4766 5.27089 11.5971 5.24485 11.7143L4.19016 15.8744C4.17714 15.9135 4.17714 15.9525 4.19016 15.9916C4.20318 16.0307 4.22272 16.0567 4.24876 16.0697C4.26178 16.0827 4.2748 16.0925 4.28782 16.099C4.30084 16.1055 4.31386 16.1088 4.32688 16.1088C4.3399 16.1088 4.35292 16.1088 4.36594 16.1088C4.37897 16.1088 4.3985 16.1023 4.42454 16.0893L8.07688 13.765C8.18105 13.6999 8.29173 13.6511 8.40891 13.6186C8.5261 13.586 8.64329 13.5697 8.76048 13.5697C8.87766 13.5697 8.99485 13.586 9.11204 13.6186C9.22923 13.6511 9.3399 13.6999 9.44407 13.765Z" fill="black"/>
</svg>
