<svg width="15" height="12" viewBox="0 0 15 12" fill="none" xmlns="http://www.w3.org/2000/svg">
<path d="M0.77002 5.91992C0.77002 5.76758 0.825684 5.63574 0.937012 5.52441C1.04834 5.41309 1.18018 5.35742 1.33252 5.35742H13.7075C13.8599 5.35742 13.9917 5.41309 14.103 5.52441C14.2144 5.63574 14.27 5.76758 14.27 5.91992C14.27 6.07227 14.2144 6.2041 14.103 6.31543C13.9917 6.42676 13.8599 6.48242 13.7075 6.48242H1.33252C1.18018 6.48242 1.04834 6.42676 0.937012 6.31543C0.825684 6.2041 0.77002 6.07227 0.77002 5.91992ZM8.24072 0.453125C8.35791 0.347656 8.49268 0.294922 8.64502 0.294922C8.79736 0.294922 8.93213 0.347656 9.04932 0.453125L14.1118 5.51562C14.2173 5.63281 14.27 5.76758 14.27 5.91992C14.27 6.07227 14.2173 6.20703 14.1118 6.32422L9.04932 11.3867C8.93213 11.4922 8.79736 11.5449 8.64502 11.5449C8.49268 11.5449 8.35791 11.4922 8.24072 11.3867C8.13525 11.2695 8.08252 11.1348 8.08252 10.9824C8.08252 10.8301 8.13525 10.6953 8.24072 10.5781L12.9165 5.91992L8.24072 1.26172C8.13525 1.14453 8.08252 1.00977 8.08252 0.857422C8.08252 0.705078 8.13525 0.570312 8.24072 0.453125Z" fill="white"/>
</svg>
