<svg width="14" height="12" viewBox="0 0 14 12" fill="none" xmlns="http://www.w3.org/2000/svg">
<path d="M0 6.30011C0 6.14777 0.0556641 6.01593 0.166992 5.9046C0.27832 5.79327 0.410156 5.73761 0.5625 5.73761H12.9375C13.0898 5.73761 13.2217 5.79327 13.333 5.9046C13.4443 6.01593 13.5 6.14777 13.5 6.30011C13.5 6.45245 13.4443 6.58429 13.333 6.69562C13.2217 6.80695 13.0898 6.86261 12.9375 6.86261H0.5625C0.410156 6.86261 0.27832 6.80695 0.166992 6.69562C0.0556641 6.58429 0 6.45245 0 6.30011ZM7.4707 0.833313C7.58789 0.727844 7.72266 0.67511 7.875 0.67511C8.02734 0.67511 8.16211 0.727844 8.2793 0.833313L13.3418 5.89581C13.4473 6.013 13.5 6.14777 13.5 6.30011C13.5 6.45245 13.4473 6.58722 13.3418 6.70441L8.2793 11.7669C8.16211 11.8724 8.02734 11.9251 7.875 11.9251C7.72266 11.9251 7.58789 11.8724 7.4707 11.7669C7.36523 11.6497 7.3125 11.515 7.3125 11.3626C7.3125 11.2103 7.36523 11.0755 7.4707 10.9583L12.1465 6.30011L7.4707 1.64191C7.36523 1.52472 7.3125 1.38995 7.3125 1.23761C7.3125 1.08527 7.36523 0.9505 7.4707 0.833313Z" fill="black"/>
</svg>
